#!OML:ASF E:\id_vita\Project 1\Capture day 1\Session 1\Female.ASF
:FULLY-SPECIFIED
:DEGREES
777
root -0.69925 15.6887 -1.37872 93.3249 -87.3676 -43.417
lowerback 10.5955 -1.38094 -7.0755
upperback 6.63656 -2.63685 2.59202
thorax 1.48795 -1.69145 6.94699
lowerneck -8.89151 2.08345 -1.86717
upperneck -25.3936 3.05427 7.63829
head -6.43839 0.41864 2.81602
rclavicle 7.15625e-014 2.10712e-014
rhumerus -3.17164 45.3566 -97.7703
rradius 81.5463
rwrist -29.0166
rhand -34.8845 -1.58573
rfingers 7.12502
rthumb -8.03326 -31.4131
lclavicle 7.15625e-014 2.10712e-014
lhumerus 54.6634 -10.9468 91.0737
lradius 15.2796
lwrist -7.51239
lhand 6.71705 44.6128
lfingers 7.12502
lthumb 32.0063 71.8175
rfemur -38.9319 -10.6295 30.6373
rtibia 39.7038
rfoot -13.0668 -10.0412
rtoes -23.4858
lfemur -83.614 0.681511 -36.3661
ltibia 44.9714
lfoot -8.90208 2.06928
ltoes 6.74418
778
root -0.626666 15.6928 -1.39773 98.0435 -87.4601 -47.7888
lowerback 10.3748 -1.36974 -7.13416
upperback 6.5674 -2.60803 2.51126
thorax 1.52875 -1.67385 6.88372
lowerneck -8.9989 2.11724 -1.8516
upperneck -25.3639 3.07459 7.51537
head -6.41149 0.438744 2.77228
rclavicle -1.98785e-014 3.97569e-015
rhumerus -2.95902 45.3749 -97.6616
rradius 81.5915
rwrist -28.9741
rhand -34.7808 -1.95869
rfingers 7.12502
rthumb -7.93322 -31.7898
lclavicle -1.98785e-014 3.97569e-015
lhumerus 54.7841 -10.7881 91.0914
lradius 15.2502
lwrist -7.56219
lhand 6.90515 44.6175
lfingers 7.12502
lthumb 32.1854 71.786
rfemur -39.1443 -10.1155 30.7673
rtibia 38.4876
rfoot -13.177 -10.9657
rtoes -23.6862
lfemur -83.9409 0.653274 -36.214
ltibia 44.3204
lfoot -8.41219 2.0741
ltoes 8.24411
779
root -0.553248 15.6918 -1.41702 102.517 -87.4506 -51.9087
lowerback 10.1259 -1.36622 -7.10308
upperback 6.52259 -2.58062 2.44558
thorax 1.60667 -1.65721 6.78367
lowerneck -9.12022 2.11906 -2.00238
upperneck -25.3789 3.09712 7.62257
head -6.40077 0.455037 2.83477
rclavicle 3.18055e-015 -6.20208e-014
rhumerus -2.48682 45.4741 -97.4369
rradius 81.3711
rwrist -28.8645
rhand -34.9382 -2.47012
rfingers 7.12502
rthumb -8.08508 -32.2955
lclavicle 3.18055e-015 -6.20208e-014
lhumerus 54.973 -10.6353 91.07
lradius 15.178
lwrist -7.43662
lhand 6.85269 44.5791
lfingers 7.12502
lthumb 32.1355 71.7578
rfemur -39.428 -9.61885 30.9913
rtibia 37.3658
rfoot -13.294 -12.0601
rtoes -23.8794
lfemur -84.2763 0.597478 -35.9159
ltibia 43.6824
lfoot -8.00605 2.16502
ltoes 9.00448
780
root -0.481442 15.6954 -1.43322 108.029 -87.4158 -57.2012
lowerback 9.99807 -1.32117 -7.0119
upperback 6.48329 -2.50381 2.35279
thorax 1.61085 -1.61138 6.62235
lowerneck -9.22148 2.09116 -2.08818
upperneck -25.315 3.07466 7.71626
head -6.36376 0.449643 2.88065
rclavicle -3.97569e-014 -7.55382e-015
rhumerus -2.11388 45.5595 -97.2534
rradius 81.075
rwrist -28.9783
rhand -35.2081 -2.64562
rfingers 7.12502
rthumb -8.34559 -32.4608
lclavicle -3.97569e-014 -7.55382e-015
lhumerus 55.0997 -10.3754 91.3503
lradius 15.0781
lwrist -7.60183
lhand 6.69394 44.4269
lfingers 7.12502
lthumb 31.9843 71.636
rfemur -39.5928 -9.1882 31.1859
rtibia 36.251
rfoot -13.2353 -13.0445
rtoes -23.4513
lfemur -84.4804 0.635126 -35.6429
ltibia 43.0627
lfoot -7.83254 2.20093
ltoes 9.76651
781
root -0.403795 15.6966 -1.44867 114.843 -87.3687 -63.864
lowerback 9.99706 -1.27428 -6.94663
upperback 6.40994 -2.43518 2.23578
thorax 1.51182 -1.56462 6.45716
lowerneck -9.26024 2.14897 -1.9844
upperneck -25.2072 3.13453 7.61951
head -6.32342 0.483973 2.82687
rclavicle -6.52014e-014 -2.94201e-014
rhumerus -2.04195 45.5648 -97.291
rradius 80.9643
rwrist -29.1111
rhand -35.1907 -2.41496
rfingers 7.12502
rthumb -8.32877 -32.2308
lclavicle -6.52014e-014 -2.94201e-014
lhumerus 55.0997 -10.0732 91.5318
lradius 15.137
lwrist -7.6842
lhand 6.81921 44.3883
lfingers 7.12502
lthumb 32.1036 71.5734
rfemur -39.7519 -8.73283 31.3359
rtibia 35.1696
rfoot -12.8616 -13.9461
rtoes -22.5655
lfemur -84.6711 0.661151 -35.2397
ltibia 42.4436
lfoot -7.75804 2.43135
ltoes 10.5197
782
root -0.338091 15.7028 -1.45969 121.086 -87.1974 -70.4874
lowerback 10.5108 -1.19356 -6.79691
upperback 6.513 -2.36013 2.11087
thorax 1.3126 -1.51993 6.25192
lowerneck -9.23733 2.21311 -1.94137
upperneck -25.2153 3.22713 7.63464
head -6.33443 0.523344 2.82206
rclavicle 2.70347e-014 -3.53837e-014
rhumerus -1.8864 45.5786 -97.387
rradius 80.8441
rwrist -29.0693
rhand -35.1016 -2.19577
rfingers 7.12502
rthumb -8.24282 -32.015
lclavicle 2.70347e-014 -3.53837e-014
lhumerus 55.1651 -9.88171 91.3103
lradius 15.2974
lwrist -7.49598
lhand 7.2151 44.4504
lfingers 7.12502
lthumb 32.4804 71.5588
rfemur -39.3434 -8.46701 31.4842
rtibia 34.1135
rfoot -12.7966 -14.6415
rtoes -22.3099
lfemur -84.2189 0.794059 -34.5458
ltibia 41.7985
lfoot -7.82834 3.0237
ltoes 10.5314
783
root -0.261789 15.7029 -1.47651 126.847 -87.1228 -76.1797
lowerback 10.5626 -1.14952 -6.7847
upperback 6.519 -2.30641 2.00092
thorax 1.27558 -1.48968 6.12575
lowerneck -9.15706 2.25305 -1.89303
upperneck -25.2805 3.27817 7.58975
head -6.37067 0.543027 2.79817
rclavicle -6.36111e-015 3.22031e-014
rhumerus -1.7017 45.4335 -97.4882
rradius 80.74
rwrist -28.862
rhand -34.9419 -2.76059
rfingers 7.12502
rthumb -8.08869 -32.5858
lclavicle -6.36111e-015 3.22031e-014
lhumerus 55.3063 -9.69315 91.2911
lradius 15.3418
lwrist -7.46707
lhand 7.80469 44.3321
lfingers 7.12502
lthumb 33.0413 71.3236
rfemur -39.6027 -8.19256 31.6469
rtibia 33.3131
rfoot -13.0574 -15.428
rtoes -23.0182
lfemur -84.1782 0.862435 -34.1816
ltibia 41.0426
lfoot -7.87197 3.34981
ltoes 10.8692
784
root -0.188959 15.7074 -1.49973 139.408 -87.0908 -88.634
lowerback 10.4179 -0.994113 -7.19635
upperback 6.52192 -2.12845 1.82023
thorax 1.34214 -1.41292 6.14849
lowerneck -9.11977 2.35419 -1.71495
upperneck -25.2806 3.37845 7.36731
head -6.37797 0.592998 2.69063
rclavicle 3.02153e-014 1.03368e-014
rhumerus -1.63843 45.172 -97.5833
rradius 80.8388
rwrist -28.8419
rhand -34.9409 -3.50749
rfingers 7.12502
rthumb -8.08776 -33.3327
lclavicle 3.02153e-014 1.03368e-014
lhumerus 55.4488 -9.4577 91.5488
lradius 15.3209
lwrist -7.67441
lhand 9.02153 44.3955
lfingers 7.12502
lthumb 34.1977 71.1352
rfemur -39.9517 -7.6824 31.4894
rtibia 32.8493
rfoot -13.1857 -16.4758
rtoes -23.4208
lfemur -84.1409 1.02548 -33.9263
ltibia 40.2094
lfoot -7.94719 3.82229
ltoes 11.4986
785
root -0.107876 15.71 -1.50772 145.651 -87.2284 -94.8783
lowerback 10.6657 -1.01618 -7.25706
upperback 6.43484 -2.18114 1.61329
thorax 1.11644 -1.4237 5.97902
lowerneck -9.43088 2.41009 -1.51506
upperneck -24.8573 3.40009 7.17956
head -6.18568 0.625936 2.58823
rclavicle -2.06736e-014 5.92378e-014
rhumerus -1.6572 45.0329 -97.7463
rradius 80.9198
rwrist -28.975
rhand -35.1655 -3.80372
rfingers 7.12502
rthumb -8.3045 -33.6205
lclavicle -2.06736e-014 5.92378e-014
lhumerus 55.4832 -9.18569 91.7077
lradius 15.3298
lwrist -7.88941
lhand 10.1197 44.7008
lfingers 7.12502
lthumb 35.2399 71.2005
rfemur -40.3326 -7.68826 31.409
rtibia 32.6896
rfoot -13.0364 -17.3657
rtoes -22.9231
lfemur -83.9149 0.710183 -33.5117
ltibia 39.3342
lfoot -7.88396 4.48152
ltoes 11.9439
786
root -0.0115086 15.7006 -1.51669 147.874 -87.1252 -96.6224
lowerback 10.4143 -1.14274 -7.023
upperback 6.28539 -2.30248 1.53795
thorax 1.09813 -1.46551 5.7698
lowerneck -9.62927 2.41801 -1.78448
upperneck -24.6959 3.46177 7.46504
head -6.11041 0.669621 2.72611
rclavicle 1.59028e-015 3.53837e-014
rhumerus -1.45247 45.0809 -97.8209
rradius 80.827
rwrist -28.9112
rhand -35.3929 -3.71055
rfingers 7.12502
rthumb -8.52398 -33.5185
lclavicle 1.59028e-015 3.53837e-014
lhumerus 55.6486 -8.65098 91.9376
lradius 15.248
lwrist -8.16003
lhand 10.4684 44.7017
lfingers 7.12502
lthumb 35.5704 71.1226
rfemur -41.3637 -7.71855 31.8971
rtibia 32.8803
rfoot -13.0147 -17.8034
rtoes -22.3977
lfemur -84.3483 0.471238 -33.0319
ltibia 38.4877
lfoot -7.54351 4.879
ltoes 11.7222
787
root 0.0484389 15.7018 -1.51889 152.859 -86.6437 -101.941
lowerback 10.6138 -1.08885 -6.72711
upperback 6.43506 -2.22977 1.4157
thorax 1.11426 -1.42824 5.47082
lowerneck -9.50778 2.50775 -2.05182
upperneck -24.8311 3.64135 7.65567
head -6.18916 0.760197 2.83195
rclavicle 1.74931e-014 2.98177e-014
rhumerus -1.27794 45.155 -97.8996
rradius 80.7223
rwrist -28.9239
rhand -35.8912 -2.43668
rfingers 7.12502
rthumb -9.00481 -32.2245
lclavicle 1.74931e-014 2.98177e-014
lhumerus 55.8902 -8.08205 92.1897
lradius 15.0468
lwrist -8.36577
lhand 10.662 44.5608
lfingers 7.12502
lthumb 35.7539 70.9374
rfemur -41.3799 -7.73013 32.2644
rtibia 33.2719
rfoot -13.4316 -17.9846
rtoes -22.4304
lfemur -83.9044 0.589521 -32.1267
ltibia 37.7349
lfoot -6.996 5.83712
ltoes 10.5188
788
root 0.144009 15.6961 -1.53347 154.761 -86.5122 -103.713
lowerback 10.6493 -1.10094 -6.56831
upperback 6.38283 -2.23396 1.34849
thorax 1.02871 -1.41876 5.31279
lowerneck -9.38275 2.51596 -2.23543
upperneck -24.9188 3.68552 7.74357
head -6.24376 0.788138 2.89168
rclavicle -1.59028e-015 -1.23246e-014
rhumerus -1.08324 45.0687 -97.896
rradius 80.6722
rwrist -28.988
rhand -36.3156 -1.13793
rfingers 7.12502
rthumb -9.41436 -30.9077
lclavicle -1.59028e-015 -1.23246e-014
lhumerus 56.1668 -7.81322 92.3898
lradius 14.815
lwrist -8.51534
lhand 10.8688 44.4832
lfingers 7.12502
lthumb 35.9499 70.8121
rfemur -42.0151 -7.67523 32.6436
rtibia 33.7198
rfoot -13.5616 -18.4935
rtoes -23.2775
lfemur -84.164 0.547261 -31.8639
ltibia 37.1389
lfoot -6.40252 6.17366
ltoes 9.50933
789
root 0.2476 15.6841 -1.54737 158.845 -86.4576 -107.558
lowerback 10.6029 -1.0952 -6.571
upperback 6.30557 -2.22213 1.24429
thorax 0.965872 -1.4047 5.20352
lowerneck -9.45483 2.5071 -2.29395
upperneck -24.877 3.661 7.67182
head -6.21732 0.790381 2.87853
rclavicle 6.36111e-015 -2.34566e-014
rhumerus -0.730677 44.9655 -97.8016
rradius 80.5299
rwrist -29.1342
rhand -36.3363 -0.41086
rfingers 7.12502
rthumb -9.43427 -30.1797
lclavicle 6.36111e-015 -2.34566e-014
lhumerus 56.4475 -7.62612 92.5878
lradius 14.6864
lwrist -8.79265
lhand 9.00963 43.8298
lfingers 7.12502
lthumb 34.1864 70.572
rfemur -42.7663 -7.67294 32.9308
rtibia 34.0636
rfoot -13.4557 -19.0711
rtoes -24.2268
lfemur -84.6068 0.481421 -31.7701
ltibia 36.6922
lfoot -6.05059 6.44202
ltoes 8.96603
790
root 0.328017 15.6837 -1.55918 165.341 -86.0616 -114.318
lowerback 10.8273 -0.966369 -6.77586
upperback 6.38343 -2.09482 1.11365
thorax 0.912019 -1.34884 5.17736
lowerneck -9.61646 2.54657 -2.36747
upperneck -24.6351 3.71321 7.66946
head -6.11616 0.838583 2.8859
rclavicle -3.33958e-014 8.74653e-015
rhumerus -0.390266 44.9447 -97.7123
rradius 80.4972
rwrist -29.124
rhand -36.1073 -0.617574
rfingers 7.12502
rthumb -9.21332 -30.3963
lclavicle -3.33958e-014 8.74653e-015
lhumerus 56.6546 -7.2315 92.9072
lradius 14.6155
lwrist -9.24463
lhand 2.54831 42.1919
lfingers 7.12502
lthumb 28.0289 70.1185
rfemur -42.9279 -7.73309 33.1339
rtibia 34.4481
rfoot -13.6885 -19.4091
rtoes -24.3261
lfemur -84.4708 0.752779 -31.4166
ltibia 36.3396
lfoot -5.7999 6.99673
ltoes 8.8086
791
root 0.415994 15.6834 -1.57233 169.771 -85.6368 -118.856
lowerback 10.9114 -0.916566 -6.81715
upperback 6.37854 -2.04403 0.926289
thorax 0.847463 -1.31989 5.00193
lowerneck -9.45517 2.65269 -2.395
upperneck -24.6507 3.8887 7.76292
head -6.15825 0.919619 2.91532
rclavicle 1.59028e-014 6.16232e-014
rhumerus -0.440531 44.7706 -98.076
rradius 80.7651
rwrist -28.8465
rhand -35.9026 -0.769743
rfingers 7.12502
rthumb -9.01578 -30.5571
lclavicle 1.59028e-014 6.16232e-014
lhumerus 56.8107 -6.77065 93.1541
lradius 14.5368
lwrist -9.67561
lhand 8.90562 43.9874
lfingers 7.12502
lthumb 34.0876 70.7517
rfemur -43.2767 -7.78561 33.4665
rtibia 34.68
rfoot -14.0155 -19.6172
rtoes -24.4972
lfemur -84.6033 1.01233 -31.0518
ltibia 36.1291
lfoot -5.6634 7.39762
ltoes 8.60013
